<?xml version="1.0" encoding="UTF-8"?>
<svg version="1.1" viewBox="0 0 228.6627 23.2372" xml:space="preserve" xmlns="http://www.w3.org/2000/svg" xmlns:cc="http://creativecommons.org/ns#" xmlns:dc="http://purl.org/dc/elements/1.1/" xmlns:rdf="http://www.w3.org/1999/02/22-rdf-syntax-ns#"><metadata><rdf:RDF><cc:Work rdf:about=""><dc:format>image/svg+xml</dc:format><dc:type rdf:resource="http://purl.org/dc/dcmitype/StillImage"/><dc:title/></cc:Work></rdf:RDF></metadata><defs><clipPath id="a"><path d="M 0,17.428 H 171.497 V 0 H 0 Z"/></clipPath></defs><g transform="matrix(1.333333 0 0 -1.333333 0 23.2372)"><g transform="translate(39.501,12.7233)"><path d="m0 0-1.325-10.508h-0.048l-2.736 10.508h-1.688l-2.737-10.508h-0.048l-1.324 10.508h-1.594l2.135-12.266h1.639l2.737 10.317h0.047l2.759-10.317h1.642l2.134 12.266z"/></g><g transform="translate(112.6125,17.4276)"><path d="m0 0-2.19-14.859h-0.047l-3.902 14.859h-2.019l-3.879-14.859h-0.048l-2.038 14.859h-1.735l2.893-16.973h1.758l4.021 15.19h0.048l4.045-15.19h1.711l2.998 16.973z"/></g><g clip-path="url(#a)"><g transform="translate(1.522,8.0012)"><path d="m0 0h3.792c2.615 0 4.063-1.215 4.063-3.188 0-2.258-1.424-3.155-3.801-3.155h-4.054zm0 8.063h3.961c2.639 0 3.923-1.026 3.923-3.309 0-2.282-1.154-3.471-3.793-3.471h-4.091zm-1.522-15.69h6.075c3.281 0 4.694 1.8 4.694 4.321 0 1.749-0.817 3.267-2.874 3.781v0.048c2.092 0.404 3.032 2.02 3.032 4.231 0 2.972-1.926 4.594-5.135 4.594h-5.792z"/></g><path d="m117.567 12.654h1.496v-12.266h-1.496z"/><path d="m141.941 12.654h1.498v-12.266h-1.498z"/><g transform="translate(148.0826,12.6535)"><path d="m0 0h1.498v-2.116h0.047c0.547 1.474 2.188 2.473 3.923 2.473 3.448 0 4.284-1.807 4.284-4.731v-7.893h-1.498v7.655c0 2.116-0.48 3.708-2.905 3.708-2.377 0-3.804-1.806-3.851-4.207v-7.156h-1.498z"/></g><g transform="translate(169.3043,9.0349)"><path d="m0 0c0.643 1.723-1.231 2.688-2.943 2.688-1.332 0-2.902-0.524-2.902-2.118 0-1.331 1.523-1.806 2.545-2.067l1.996-0.452c1.713-0.261 3.496-1.26 3.496-3.401 0-2.663-2.638-3.685-4.922-3.685-2.853 0-5.377 1.509-4.773 4.327h1.498c-0.672-1.781 1.35-3.068 3.348-3.068 1.401 0 3.352 0.619 3.352 2.331 0 1.426-1.332 1.903-2.687 2.236l-1.927 0.427c-1.949 0.523-3.424 1.189-3.424 3.282 0 2.497 2.45 3.447 4.613 3.447 2.45 0 4.941-1.532 4.227-3.947z"/></g><g transform="translate(73.7296,9.0617)"><path d="m0 0c0.645 1.723-1.231 2.688-2.943 2.688-1.331 0-2.901-0.524-2.901-2.117 0-1.332 1.522-1.807 2.544-2.069l1.998-0.451c1.713-0.262 3.496-1.261 3.496-3.401 0-2.663-2.641-3.685-4.923-3.685-2.854 0-5.38 1.51-4.773 4.327h1.497c-0.672-1.781 1.349-3.066 3.347-3.066 1.403 0 3.354 0.617 3.354 2.329 0 1.426-1.332 1.902-2.688 2.235l-1.925 0.429c-1.952 0.522-3.425 1.188-3.425 3.281 0 2.496 2.449 3.448 4.613 3.448 2.449 0 4.941-1.533 4.228-3.948z"/></g><g transform="translate(19.733,11.6975)"><path d="m0 0c2.848 0 4.049-2.588 4.049-5.178 0-2.588-1.201-5.177-4.049-5.177s-4.049 2.589-4.049 5.177c0 2.59 1.201 5.178 4.049 5.178m0 1.247c-3.719 0-5.532-2.942-5.532-6.425s1.813-6.425 5.532-6.425 5.532 2.942 5.532 6.425-1.813 6.425-5.532 6.425"/></g><g transform="translate(129.9224,17.3601)"><path d="m0 0h1.498v-10.387l5.703 5.68h1.949l-4.551-4.54 4.861-7.726h-1.74l-4.167 6.732-2.055-2.073v-4.659h-1.498z"/></g><g transform="translate(64.0772,10.7961)"><path d="m0 0c-0.425 0.28-0.891 0.466-1.6 0.466-1.479 0-2.308-1.374-2.308-3.705v-7.179h-1.519v12.236h1.519v-1.515c0.485 0.979 1.498 1.706 2.632 1.706 0.79 0 1.296-0.183 1.66-0.369z"/></g><path d="m123.759 17.359h1.498v-16.973h-1.498z"/><g transform="translate(84.8511,8.1008)"><path d="m0 0 2e-3 -4e-3c-0.791-0.489-3.311-1.641-3.311-4.212h0.01v-0.022c0-1.257 0.911-3.676 4.226-3.676 2.859 0 3.94 2.074 3.94 2.074l1.57-1.839h1.799c-0.439 0.51-2.582 2.989-2.582 2.989s0.953 1.755 0.953 3.328h-1.3c0-1.001-0.534-2.314-0.534-2.314l-2.79 3.396s2.7 1.264 2.7 3.584c0 1.632-1.394 2.718-3.246 2.718-1.762 0-3.013-1.123-3.013-2.738 0-1.384 0.829-2.258 1.576-3.284m3.306 3.356c0-1.474-1.313-2.199-2.134-2.691 0 0-1.35 1.454-1.35 2.695 0 1.093 0.918 1.591 1.743 1.591 0.781 0 1.741-0.483 1.741-1.595m-2.32-10.004c-1.268 0-2.805 0.88-2.805 2.509 0 1.591 1.186 2.425 2.572 3.23 8e-3 -9e-3 0.015-0.018 0.015-0.018l3.316-3.977s-0.91-1.744-3.098-1.744"/></g><g transform="translate(52.9966,4.3205)"><path d="m0 0c-0.483-1.766-1.453-2.979-3.567-2.979-2.848 0-3.767 2.614-3.79 4.779h8.922c0.117 3.412-1.225 6.825-5.132 6.825-3.86 0-5.273-3.224-5.273-6.426 0-3.46 1.413-6.426 5.273-6.426 2.908 0 4.306 1.45 4.983 3.956zm-3.567 7.377c2.401 0 3.579-2.094 3.65-4.329h-7.44c0.235 2.211 1.366 4.329 3.79 4.329"/></g><path d="m117.567 17.359h1.496v-2.401h-1.496z"/><path d="m141.941 17.359h1.497v-2.401h-1.497z"/></g></g></svg>
