<svg width="88" height="29" viewBox="0 0 88 29" fill="none" xmlns="http://www.w3.org/2000/svg">
<path fill-rule="evenodd" clip-rule="evenodd" d="M34.1747 28.1942H39.3009V0H34.1747V28.1942ZM75.1844 0V28.1942H80.4839V15.1512H87.5024V11.7784H80.4839V3.37809H88V0H75.1844ZM55.534 0V28.1942H70.9126V24.819H60.9083V15.195H69.599V11.8199H60.9083V3.37809H70.4117V0H55.534ZM45.0916 0L39.301 13.887L46.6319 28.1942H52.1165L44.0499 13.8936L50.5118 0H45.0916ZM25.0627 0L18.7962 13.892V0H0V28.1942H18.7962V14.038L25.0627 28.1942H28.1942V0H25.0627Z" fill="black"></path>
</svg>