<?xml version="1.0" encoding="UTF-8"?> <!-- Generator: Adobe Illustrator 22.0.1, SVG Export Plug-In . SVG Version: 6.00 Build 0) --> <svg xmlns="http://www.w3.org/2000/svg" xmlns:xlink="http://www.w3.org/1999/xlink" id="Ebene_1" x="0px" y="0px" viewBox="0 0 1000 336" style="enable-background:new 0 0 1000 336;" xml:space="preserve"> <style type="text/css"> .st0{fill:#FFFFFF;} </style> <g> <path class="st0" d="M931.437,192.865c0,14.407,3.08,24.652,9.245,30.739c6.16,6.091,15.627,9.133,28.401,9.133 c3.709,0,7.608-0.26,11.694-0.779c4.084-0.523,8.278-1.448,12.585-2.784l-4.453-22.945c-2.083,0.595-4.198,1.002-6.349,1.226 c-2.155,0.222-4.272,0.333-6.35,0.333c-4.009,0-7.276-1.074-9.801-3.229c-2.526-2.151-3.787-6.273-3.787-12.364v-53.683h26.732 v-24.281h-26.732V83.268h-31.185v30.964h-18.265v24.281h18.265V192.865z M877.088,188.139c-0.595,6.683-2.599,11.806-6.013,15.37 c-3.419,3.564-8.243,5.346-14.479,5.346c-4.755,0-8.688-1.003-11.807-3.006c-3.118-2.006-5.568-4.714-7.35-8.132 c-1.783-3.414-3.046-7.35-3.788-11.806c-0.745-4.455-1.112-9.133-1.112-14.034c0-4.751,0.368-9.316,1.112-13.7 c0.743-4.378,2.041-8.277,3.898-11.693c1.855-3.415,4.344-6.127,7.463-8.13c3.118-2.005,7.052-3.007,11.805-3.007 c6.534,0,11.137,1.819,13.812,5.458c2.672,3.641,4.377,8.43,5.122,14.367l31.409-4.232c-0.745-5.94-2.227-11.396-4.456-16.374 c-2.227-4.973-5.345-9.243-9.354-12.808c-4.011-3.565-8.95-6.348-14.815-8.353c-5.867-2.004-12.734-3.006-20.605-3.006 c-9.209,0-17.375,1.486-24.502,4.453c-7.129,2.974-13.143,7.167-18.044,12.586c-4.9,5.424-8.652,11.956-11.248,19.603 c-2.6,7.649-3.898,16.077-3.898,25.282c0,9.21,1.113,17.598,3.341,25.171c2.227,7.574,5.605,14.034,10.135,19.38 c4.528,5.346,10.357,9.504,17.487,12.474c7.128,2.968,15.592,4.455,25.394,4.455c16.78,0,29.366-4.121,37.757-12.363 c8.387-8.242,13.177-19.34,14.367-33.302H877.088z M707.353,159.18c0.146-3.563,0.815-6.866,2.004-9.911 c1.187-3.042,2.857-5.716,5.011-8.019c2.152-2.301,4.79-4.121,7.909-5.457c3.118-1.336,6.757-2.006,10.915-2.006 c8.315,0,14.441,2.227,18.378,6.683c3.932,4.456,5.903,10.692,5.903,18.71H707.353z M755.913,193.931 c-2.227,10.397-9.507,15.593-21.832,15.593c-8.908,0-15.59-2.635-20.046-7.908c-4.456-5.269-6.832-12.586-7.127-21.94h80.637 v-12.475c0-17.375-4.493-31.186-13.478-41.432c-8.987-10.247-22.386-15.369-40.206-15.369c-8.615,0-16.485,1.374-23.612,4.12 c-7.127,2.75-13.254,6.794-18.377,12.14c-5.123,5.347-9.099,11.845-11.917,19.49c-2.823,7.65-4.234,16.372-4.234,26.174 c0,19.602,4.864,34.749,14.591,45.442c9.724,10.692,24.243,16.039,43.549,16.039c16.039,0,28.252-3.381,36.643-10.135 c8.388-6.756,13.623-16.668,15.703-29.738H755.913z M542.294,175.443c0.891,20.197,6.461,35.049,16.706,44.551 c10.248,9.506,25.172,14.257,44.774,14.257c8.911,0,17.003-1.226,24.281-3.677c7.273-2.45,13.476-6.125,18.598-11.026 c5.125-4.901,9.096-11.026,11.92-18.378c2.818-7.35,4.231-15.85,4.231-25.506V71.194h-33.19V173.66 c0,10.247-2.083,18.156-6.237,23.724c-4.16,5.57-10.843,8.354-20.049,8.354c-5.051,0-9.245-0.669-12.586-2.005 c-3.341-1.336-6.091-3.303-8.242-5.902c-2.153-2.597-3.751-5.792-4.789-9.579c-1.041-3.787-1.782-8.053-2.227-12.808H542.294z M460.323,179.006h66.603v-30.739h-66.603V179.006z M366.098,199.389c-4.307-6.31-6.458-15.482-6.458-27.51 c0-11.879,2.189-20.938,6.57-27.176c4.378-6.237,11.026-9.355,19.938-9.355c8.909,0,15.554,3.117,19.935,9.355 c4.38,6.239,6.572,15.297,6.572,27.176c0,11.883-2.192,21.016-6.572,27.399c-4.382,6.387-11.026,9.578-19.935,9.578 C377.087,208.855,370.404,205.704,366.098,199.389 M410.427,229.571c7.275-2.818,13.476-6.904,18.601-12.25 c5.123-5.346,9.055-11.841,11.805-19.491c2.746-7.648,4.122-16.295,4.122-25.952c0-9.502-1.336-18.078-4.01-25.728 c-2.672-7.645-6.571-14.106-11.695-19.378c-5.123-5.271-11.325-9.319-18.599-12.14c-7.278-2.821-15.448-4.232-24.503-4.232 c-8.911,0-17.007,1.411-24.281,4.232c-7.277,2.822-13.476,6.87-18.598,12.14c-5.125,5.272-9.061,11.733-11.807,19.378 c-2.75,7.65-4.121,16.226-4.121,25.728c0,19.902,5.123,35.196,15.371,45.888c10.247,10.692,24.726,16.039,43.437,16.039 C395.057,233.805,403.149,232.391,410.427,229.571 M250.267,231.547h31.185v-66.505c0-3.119,0.631-6.162,1.893-9.134 c1.261-2.968,3.231-5.64,5.904-8.019c2.525-2.226,5.346-3.748,8.466-4.565c3.118-0.815,6.383-1.226,9.8-1.226 c5.197,0,9.578,0.445,13.143,1.336l3.786-28.289c-1.486-0.296-3.195-0.557-5.123-0.779c-1.933-0.224-4.382-0.336-7.351-0.336 c-6.091,0-11.883,1.527-17.375,4.568c-5.496,3.046-10.173,7.611-14.034,13.699v-16.261h-30.294V231.547z"></path> </g> <g> <path class="st0" d="M104.967,59.548h62.965c13.494,0,24.649,1.523,33.457,4.568c8.805,3.049,15.803,7.081,20.989,12.099 c3.675,3.56,6.547,7.541,8.652,11.926C218.048,37.462,172.074,0,117.347,0C52.537,0,0,52.537,0,117.345 c0,60.628,45.977,110.513,104.967,116.697V59.548z"></path> </g> <g> <path class="st0" d="M193.366,96.586c-2.471-2.139-5.804-3.785-10.002-4.939c-4.197-1.151-9.505-1.729-15.925-1.729h-26.174v52.348 h26.42c6.419,0,11.728-0.656,15.925-1.975c4.198-1.315,7.532-3.125,10.001-5.432c2.47-2.304,4.156-5.144,5.063-8.519 c0.902-3.372,1.358-7.039,1.358-10.989c0-4.113-0.494-7.735-1.482-10.863C197.563,101.362,195.834,98.726,193.366,96.586"></path> </g> <g> <path class="st0" d="M222.378,155.476c-5.186,5.352-12.099,9.591-20.741,12.715c-8.643,3.13-19.55,4.692-32.717,4.692h-27.655 v59.367c46.734-9.678,83.295-47.145,91.634-94.355C230.793,144.532,227.3,150.399,222.378,155.476"></path> </g> <g> <path class="st0" d="M383.982,286.757h5.279l20.678,48.032H405.1l-6.306-14.666h-24.638l-6.233,14.666h-4.693L383.982,286.757z M397.181,316.357l-10.779-25.092l-10.633,25.092H397.181z"></path> </g> <g> <path class="st0" d="M420.499,286.757h4.473v29.263c0,5.427,1.148,9.509,3.446,12.244c2.297,2.736,6.086,4.103,11.366,4.103 c2.688,0,4.95-0.347,6.783-1.043c1.833-0.695,3.324-1.726,4.473-3.094c1.148-1.368,1.98-3.071,2.493-5.113 c0.513-2.04,0.77-4.407,0.77-7.097v-29.263h4.473v29.196c0,3.543-0.429,6.582-1.283,9.116c-0.856,2.534-2.102,4.608-3.74,6.222 c-1.638,1.615-3.642,2.804-6.013,3.566c-2.372,0.762-5.048,1.143-8.029,1.143c-3.08,0-5.806-0.381-8.176-1.143 c-2.372-0.762-4.376-1.961-6.013-3.599c-1.638-1.637-2.885-3.745-3.74-6.324c-0.856-2.578-1.283-5.661-1.283-9.25V286.757z"></path> </g> <g> <path class="st0" d="M476.96,286.757h17.671c3.667,0,6.966,0.482,9.899,1.446c2.933,0.964,5.414,2.421,7.443,4.372 c2.028,1.951,3.593,4.407,4.693,7.366c1.1,2.96,1.65,6.459,1.65,10.495c0,4.082-0.587,7.647-1.76,10.696 c-1.173,3.051-2.859,5.584-5.059,7.602c-2.2,2.018-4.865,3.531-7.992,4.541c-3.129,1.009-6.625,1.514-10.486,1.514H476.96V286.757z M493.312,331.157c6.99,0,12.123-1.783,15.399-5.348c3.274-3.565,4.913-8.644,4.913-15.237c0-6.502-1.528-11.504-4.583-15.002 c-3.056-3.499-7.858-5.247-14.409-5.247h-13.199v40.834H493.312z"></path> <path class="st0" d="M534.961,286.757h4.472v48.032h-4.472V286.757z"></path> </g> <g> <path class="st0" d="M579.91,336c-3.373,0-6.514-0.527-9.422-1.58c-2.909-1.053-5.415-2.635-7.516-4.743 c-2.103-2.108-3.752-4.731-4.95-7.871c-1.198-3.139-1.796-6.772-1.796-10.898c0-4.126,0.598-7.77,1.796-10.932 c1.198-3.162,2.86-5.807,4.987-7.938c2.126-2.129,4.63-3.744,7.516-4.843c2.884-1.098,6.013-1.649,9.385-1.649 c3.373,0,6.501,0.528,9.386,1.581c2.884,1.054,5.364,2.635,7.443,4.743c2.078,2.108,3.715,4.72,4.914,7.837 c1.197,3.117,1.796,6.739,1.796,10.865c0,4.171-0.586,7.837-1.759,10.999c-1.173,3.162-2.799,5.809-4.877,7.938 c-2.078,2.131-4.559,3.746-7.443,4.844C586.485,335.451,583.332,336,579.91,336z M579.91,332.368c3.08,0,5.793-0.526,8.139-1.58 c2.346-1.053,4.314-2.533,5.903-4.44c1.588-1.905,2.786-4.181,3.593-6.828c0.806-2.646,1.21-5.561,1.21-8.746 c0-3.183-0.416-6.099-1.247-8.745c-0.832-2.646-2.042-4.922-3.63-6.828c-1.589-1.906-3.557-3.386-5.903-4.44 c-2.346-1.053-5.036-1.581-8.066-1.581c-3.178,0-5.952,0.528-8.322,1.581c-2.372,1.054-4.339,2.534-5.903,4.44 c-1.565,1.906-2.75,4.182-3.557,6.828c-0.806,2.647-1.21,5.562-1.21,8.745c0,3.185,0.391,6.1,1.173,8.746 c0.782,2.647,1.967,4.922,3.557,6.828c1.588,1.907,3.567,3.387,5.939,4.44C573.959,331.841,576.732,332.368,579.91,332.368z"></path> </g> <g> </g> <g> <path class="st0" d="M643.778,322.21c0.782,3.588,2.468,6.179,5.06,7.77c2.59,1.592,6.453,2.388,11.586,2.388 c2.64,0,4.827-0.269,6.563-0.807c1.735-0.538,3.117-1.255,4.143-2.152c1.026-0.897,1.76-1.951,2.2-3.162 c0.44-1.211,0.66-2.489,0.66-3.835c0-1.12-0.135-2.186-0.404-3.195c-0.27-1.009-0.782-1.928-1.54-2.758 c-0.758-0.83-1.845-1.558-3.263-2.186c-1.419-0.627-3.276-1.121-5.573-1.48l-6.526-1.009c-2.542-0.404-4.803-0.919-6.783-1.548 c-1.979-0.627-3.655-1.446-5.023-2.455c-1.369-1.009-2.408-2.276-3.116-3.801c-0.71-1.524-1.064-3.385-1.064-5.584 c0-2.197,0.501-4.103,1.503-5.718c1.002-1.615,2.346-2.948,4.033-4.002c1.687-1.053,3.666-1.839,5.94-2.355 c2.273-0.515,4.68-0.774,7.222-0.774c3.275,0,6.013,0.326,8.213,0.976c2.2,0.651,4.008,1.514,5.426,2.59 c1.417,1.076,2.518,2.298,3.3,3.666c0.782,1.369,1.393,2.748,1.833,4.137l-4.106,1.077c-0.49-1.39-1.064-2.635-1.723-3.734 c-0.66-1.099-1.54-2.029-2.64-2.792c-1.1-0.762-2.482-1.346-4.143-1.75c-1.662-0.404-3.692-0.605-6.086-0.605 c-2.689,0-4.938,0.235-6.746,0.706c-1.809,0.471-3.275,1.121-4.399,1.951c-1.125,0.83-1.932,1.816-2.42,2.96 c-0.489,1.143-0.733,2.366-0.733,3.666c0,1.345,0.171,2.512,0.514,3.498c0.341,0.987,0.928,1.839,1.759,2.557 c0.831,0.718,1.943,1.323,3.337,1.816c1.393,0.494,3.14,0.919,5.243,1.278l7.406,1.211c2.64,0.448,4.924,1.032,6.856,1.749 c1.93,0.718,3.531,1.626,4.803,2.724c1.271,1.1,2.211,2.411,2.823,3.936c0.61,1.525,0.916,3.32,0.916,5.381 c0,1.839-0.392,3.577-1.173,5.214c-0.782,1.637-1.944,3.061-3.483,4.272c-1.54,1.211-3.46,2.176-5.757,2.893 c-2.298,0.716-4.986,1.076-8.066,1.076c-2.835,0-5.463-0.247-7.883-0.74c-2.42-0.493-4.546-1.288-6.379-2.388 c-1.833-1.098-3.336-2.523-4.509-4.272c-1.173-1.749-1.907-3.879-2.2-6.391H643.778z"></path> </g> <g> <path class="st0" d="M707.646,314.002l-18.332-27.245h5.28l15.325,23.747l15.619-23.747h4.693l-18.111,27.245v20.787h-4.473 V314.002z"></path> </g> <g> <path class="st0" d="M744.529,322.21c0.782,3.588,2.468,6.179,5.059,7.77c2.59,1.592,6.453,2.388,11.586,2.388 c2.64,0,4.827-0.269,6.563-0.807c1.735-0.538,3.117-1.255,4.143-2.152c1.026-0.897,1.76-1.951,2.2-3.162 c0.44-1.211,0.66-2.489,0.66-3.835c0-1.12-0.135-2.186-0.404-3.195c-0.269-1.009-0.782-1.928-1.54-2.758 c-0.758-0.83-1.845-1.558-3.263-2.186c-1.419-0.627-3.276-1.121-5.573-1.48l-6.526-1.009c-2.542-0.404-4.803-0.919-6.783-1.548 c-1.979-0.627-3.655-1.446-5.023-2.455c-1.369-1.009-2.409-2.276-3.116-3.801c-0.71-1.524-1.064-3.385-1.064-5.584 c0-2.197,0.501-4.103,1.503-5.718c1.002-1.615,2.346-2.948,4.033-4.002c1.687-1.053,3.666-1.839,5.94-2.355 c2.273-0.515,4.68-0.774,7.222-0.774c3.275,0,6.013,0.326,8.213,0.976c2.2,0.651,4.008,1.514,5.426,2.59 c1.417,1.076,2.518,2.298,3.3,3.666c0.782,1.369,1.393,2.748,1.833,4.137l-4.106,1.077c-0.49-1.39-1.064-2.635-1.723-3.734 c-0.66-1.099-1.54-2.029-2.64-2.792c-1.1-0.762-2.482-1.346-4.143-1.75c-1.662-0.404-3.692-0.605-6.086-0.605 c-2.689,0-4.938,0.235-6.746,0.706c-1.809,0.471-3.275,1.121-4.399,1.951c-1.125,0.83-1.932,1.816-2.42,2.96 c-0.489,1.143-0.733,2.366-0.733,3.666c0,1.345,0.171,2.512,0.514,3.498c0.341,0.987,0.928,1.839,1.759,2.557 c0.831,0.718,1.944,1.323,3.337,1.816c1.393,0.494,3.14,0.919,5.243,1.278l7.406,1.211c2.64,0.448,4.924,1.032,6.856,1.749 c1.93,0.718,3.531,1.626,4.803,2.724c1.27,1.1,2.211,2.411,2.823,3.936c0.61,1.525,0.916,3.32,0.916,5.381 c0,1.839-0.392,3.577-1.173,5.214c-0.782,1.637-1.944,3.061-3.483,4.272c-1.54,1.211-3.46,2.176-5.756,2.893 c-2.298,0.716-4.986,1.076-8.066,1.076c-2.835,0-5.463-0.247-7.883-0.74c-2.42-0.493-4.546-1.288-6.379-2.388 c-1.833-1.098-3.336-2.523-4.509-4.272c-1.173-1.749-1.907-3.879-2.2-6.391H744.529z"></path> </g> <g> <path class="st0" d="M809.13,290.525h-18.185v-3.767h40.769v3.767h-18.111v44.265h-4.473V290.525z"></path> <path class="st0" d="M845.499,286.757h32.924v3.7h-28.451v17.625h26.984v3.835h-26.984v19.105h29.697l-1.026,3.767h-33.144V286.757 z"></path> </g> <g> <path class="st0" d="M895.289,286.757h5.793L920,330.013l19.211-43.256h5.5v48.032h-4.18v-41.171 c-0.245,0.404-1.026,2.131-2.346,5.18c-0.586,1.301-1.32,2.95-2.2,4.944c-0.88,1.997-1.968,4.44-3.263,7.333 c-1.295,2.893-2.822,6.29-4.583,10.192c-1.76,3.902-3.789,8.409-6.086,13.522H917.8l-18.332-40.902v40.902h-4.18V286.757z"></path> </g> <g> <path class="st0" d="M964.95,322.21c0.782,3.588,2.468,6.179,5.059,7.77c2.59,1.592,6.453,2.388,11.586,2.388 c2.64,0,4.827-0.269,6.563-0.807c1.735-0.538,3.117-1.255,4.143-2.152c1.026-0.897,1.76-1.951,2.2-3.162 c0.44-1.211,0.66-2.489,0.66-3.835c0-1.12-0.135-2.186-0.404-3.195c-0.27-1.009-0.782-1.928-1.54-2.758 c-0.758-0.83-1.845-1.558-3.263-2.186c-1.419-0.627-3.276-1.121-5.573-1.48l-6.526-1.009c-2.542-0.404-4.803-0.919-6.783-1.548 c-1.979-0.627-3.655-1.446-5.023-2.455c-1.369-1.009-2.408-2.276-3.116-3.801c-0.71-1.524-1.064-3.385-1.064-5.584 c0-2.197,0.501-4.103,1.503-5.718c1.002-1.615,2.346-2.948,4.033-4.002c1.687-1.053,3.666-1.839,5.94-2.355 c2.273-0.515,4.68-0.774,7.222-0.774c3.275,0,6.013,0.326,8.213,0.976c2.2,0.651,4.008,1.514,5.426,2.59 c1.417,1.076,2.518,2.298,3.3,3.666c0.782,1.369,1.393,2.748,1.833,4.137l-4.106,1.077c-0.49-1.39-1.064-2.635-1.723-3.734 c-0.66-1.099-1.54-2.029-2.64-2.792c-1.1-0.762-2.482-1.346-4.143-1.75c-1.662-0.404-3.692-0.605-6.086-0.605 c-2.689,0-4.938,0.235-6.746,0.706c-1.809,0.471-3.275,1.121-4.399,1.951c-1.125,0.83-1.932,1.816-2.42,2.96 c-0.489,1.143-0.733,2.366-0.733,3.666c0,1.345,0.171,2.512,0.514,3.498c0.341,0.987,0.928,1.839,1.759,2.557 c0.831,0.718,1.944,1.323,3.337,1.816c1.393,0.494,3.14,0.919,5.243,1.278l7.406,1.211c2.64,0.448,4.924,1.032,6.856,1.749 c1.93,0.718,3.531,1.626,4.803,2.724c1.27,1.1,2.211,2.411,2.823,3.936c0.61,1.525,0.916,3.32,0.916,5.381 c0,1.839-0.392,3.577-1.173,5.214c-0.782,1.637-1.944,3.061-3.483,4.272c-1.54,1.211-3.46,2.176-5.756,2.893 c-2.298,0.716-4.986,1.076-8.066,1.076c-2.835,0-5.463-0.247-7.883-0.74c-2.42-0.493-4.546-1.288-6.379-2.388 c-1.833-1.098-3.336-2.523-4.509-4.272c-1.173-1.749-1.907-3.879-2.2-6.391H964.95z"></path> </g> </svg> 