<?xml version="1.0" encoding="UTF-8"?>
<svg version="1.1" xmlns="http://www.w3.org/2000/svg" width="512" height="512">
<path d="M0 0 C3.1383925 2.91841172 5.01065841 6.15614195 6.92578125 9.9609375 C8.24109681 12.4123925 9.77870632 14.51988783 11.4375 16.75 C14.62277292 21.45402418 15.46170975 25.66756144 15.1875 31.3125 C14.375 34.75 14.375 34.75 13.1875 38.3125 C12.90391997 40.12304945 12.63417203 41.93579582 12.375 43.75 C10.84589119 52.34829645 5.98748505 58.91986195 -0.8125 64.3125 C-8.71657754 69.12367763 -16.51596566 71.93226896 -25.8125 71.3125 C-26.8025 70.6525 -27.7925 69.9925 -28.8125 69.3125 C-28.8125 68.3225 -28.8125 67.3325 -28.8125 66.3125 C-29.4725 66.4775 -30.1325 66.6425 -30.8125 66.8125 C-37.64532969 67.95130495 -42.82788012 67.85441789 -48.8125 64.3125 C-49.75 61.625 -49.75 61.625 -49.8125 59.3125 C-46.23055603 55.87601568 -43.28336779 55.90848283 -38.4375 55.9375 C-37.15101562 55.92976563 -35.86453125 55.92203125 -34.5390625 55.9140625 C-30.61819215 56.33327505 -28.24026582 57.44550363 -24.8125 59.3125 C-23.8225 59.3125 -22.8325 59.3125 -21.8125 59.3125 C-21.565 58.075 -21.3175 56.8375 -21.0625 55.5625 C-20.92328125 54.86640625 -20.7840625 54.1703125 -20.640625 53.453125 C-20.88964274 50.35172219 -22.52761142 49.27856692 -24.8125 47.3125 C-25.77027344 47.6734375 -26.72804687 48.034375 -27.71484375 48.40625 C-35.18791982 51.06789353 -42.08991811 52.80554843 -50.0625 52.8125 C-51.13359009 52.82120117 -51.13359009 52.82120117 -52.22631836 52.83007812 C-56.30871351 52.73233132 -58.93991812 52.31532489 -61.8125 49.3125 C-62.375 46.875 -62.375 46.875 -61.8125 44.3125 C-57.71413185 39.36619362 -51.85102788 38.99385717 -45.8125 38.3125 C-39.40295276 37.76015122 -32.90492978 38.70236369 -26.90625 41.0625 C-23.68008659 41.44771354 -21.8191772 39.9830617 -19.0625 38.375 C-18.07765625 37.80910156 -17.0928125 37.24320312 -16.078125 36.66015625 C-15.33046875 36.21542969 -14.5828125 35.77070313 -13.8125 35.3125 C-13.8125 34.6525 -13.8125 33.9925 -13.8125 33.3125 C-25.83197021 28.04439178 -34.45340515 26.21528253 -47.125 30.375 C-52.86204068 32.21430587 -57.82478092 32.79908665 -63.8125 32.3125 C-64.1425 30.6625 -64.4725 29.0125 -64.8125 27.3125 C-58.67883646 24.10626679 -54.71390579 23.2881455 -47.8125 23.1875 C-39.93838714 22.87721394 -34.09314197 20.15149996 -27.8125 15.3125 C-27.4825 14.6525 -27.1525 13.9925 -26.8125 13.3125 C-37.3725 12.9825 -47.9325 12.6525 -58.8125 12.3125 C-57.8125 8.3125 -57.8125 8.3125 -56.26196289 7.15576172 C-55.6096167 6.85428223 -54.95727051 6.55280273 -54.28515625 6.2421875 C-53.57552734 5.90316406 -52.86589844 5.56414062 -52.13476562 5.21484375 C-51.38904297 4.87582031 -50.64332031 4.53679687 -49.875 4.1875 C-48.40594066 3.50083282 -46.93841785 2.81086615 -45.47265625 2.1171875 C-44.81918213 1.81796387 -44.16570801 1.51874023 -43.49243164 1.21044922 C-41.6212487 0.31476973 -41.6212487 0.31476973 -39.8125 -1.6875 C-39.8125 -2.6775 -39.8125 -3.6675 -39.8125 -4.6875 C-31.10807442 -13.39192558 -8.24307796 -6.39549152 0 0 Z M-19.8125 -3.6875 C-17.37236426 0.39688492 -14.63845602 1.50200677 -10.25 3.125 C-9.09371094 3.56457031 -7.93742187 4.00414062 -6.74609375 4.45703125 C-3.91025276 5.64459603 -3.91025276 5.64459603 -1.8125 4.3125 C-3.20426632 3.34826974 -4.6011223 2.39138398 -6 1.4375 C-6.77730469 0.90382812 -7.55460937 0.37015625 -8.35546875 -0.1796875 C-12.36907762 -2.64272887 -15.05865918 -3.6875 -19.8125 -3.6875 Z M-41.1875 3.75 C-42.77691406 4.70712891 -42.77691406 4.70712891 -44.3984375 5.68359375 C-45.19507812 6.22113281 -45.99171875 6.75867188 -46.8125 7.3125 C-46.8125 7.6425 -46.8125 7.9725 -46.8125 8.3125 C-34.9325 9.7975 -34.9325 9.7975 -22.8125 11.3125 C-18.5351499 6.09832528 -18.5351499 6.09832528 -18.8125 2.3125 C-20.35251707 1.97162666 -21.89462406 1.64019047 -23.4375 1.3125 C-24.72527344 1.0340625 -24.72527344 1.0340625 -26.0390625 0.75 C-32.32744895 -0.24197082 -35.70709797 0.38733357 -41.1875 3.75 Z M-15.8125 4.3125 C-16.4725 6.9525 -17.1325 9.5925 -17.8125 12.3125 C-15.37542162 13.2927271 -12.93786055 14.27172171 -10.5 15.25 C-9.80970703 15.52779297 -9.11941406 15.80558594 -8.40820312 16.09179688 C-5.55982227 17.23390128 -2.72459306 18.34180231 0.1875 19.3125 C0.5175 19.9725 0.8475 20.6325 1.1875 21.3125 C2.6658226 18.35585481 2.24782783 15.57020263 2.1875 12.3125 C-3.6879328 8.93386052 -9.16298271 5.79017051 -15.8125 4.3125 Z M1.1875 9.3125 C2.1875 11.3125 2.1875 11.3125 2.1875 11.3125 Z M-26.5 18.8125 C-27.71236328 19.78703125 -27.71236328 19.78703125 -28.94921875 20.78125 C-29.56410156 21.2865625 -30.17898437 21.791875 -30.8125 22.3125 C-30.4825 22.9725 -30.1525 23.6325 -29.8125 24.3125 C-27.9786944 24.84650419 -26.11815761 25.29001966 -24.25 25.6875 C-20.28365955 26.60244655 -16.88309645 27.60508418 -13.3125 29.5625 C-10.15504734 31.5289636 -10.15504734 31.5289636 -7.765625 31.11328125 C-5.47847264 30.17554878 -4.55561022 29.19933834 -3.0625 27.25 C-2.32 26.280625 -1.5775 25.31125 -0.8125 24.3125 C-4.47751141 21.10046753 -7.87890501 19.26018365 -12.4375 17.5625 C-13.56414062 17.13453125 -14.69078125 16.7065625 -15.8515625 16.265625 C-20.92939114 14.6310733 -22.51005779 15.57428603 -26.5 18.8125 Z M6.1875 17.3125 C5.11896589 21.76472547 4.82632616 23.65034796 7.0625 27.75 C8.114375 29.0184375 8.114375 29.0184375 9.1875 30.3125 C9.5175 30.3125 9.8475 30.3125 10.1875 30.3125 C10.50313182 25.05196963 9.85340937 21.86676184 7.1875 17.3125 C6.8575 17.3125 6.5275 17.3125 6.1875 17.3125 Z M2.1875 27.3125 C-0.1225 29.6225 -2.4325 31.9325 -4.8125 34.3125 C-2.8325 37.9425 -0.8525 41.5725 1.1875 45.3125 C5.26513771 42.44713296 7.21427065 39.88208375 9.1875 35.3125 C8.5275 35.3125 7.8675 35.3125 7.1875 35.3125 C6.919375 34.549375 6.65125 33.78625 6.375 33 C5.24797905 30.01198494 5.24797905 30.01198494 2.1875 27.3125 Z M-7.8125 37.3125 C-13.7525 40.7775 -13.7525 40.7775 -19.8125 44.3125 C-19.1525 46.2925 -18.4925 48.2725 -17.8125 50.3125 C-17.58586014 53.02311275 -17.7184132 55.58398292 -17.8125 58.3125 C-15.89095236 57.4061096 -13.97543346 56.48693196 -12.0625 55.5625 C-10.99515625 55.05203125 -9.9278125 54.5415625 -8.828125 54.015625 C-5.94555245 52.38764361 -4.00823691 50.76405092 -1.8125 48.3125 C-3.04058186 42.99081192 -3.77748481 41.34751519 -7.8125 37.3125 Z M-56.8125 45.3125 C-57.1425 45.9725 -57.4725 46.6325 -57.8125 47.3125 C-49.63027901 51.4036105 -38.02837805 46.59582095 -29.8125 44.3125 C-33.55718493 41.8837767 -37.31048512 41.98008073 -41.625 42 C-42.31142578 41.98388672 -42.99785156 41.96777344 -43.70507812 41.95117188 C-48.76664094 41.94638326 -52.32211247 42.94944075 -56.8125 45.3125 Z M5.1875 48.3125 C2.5475 51.2825 -0.0925 54.2525 -2.8125 57.3125 C-2.4825 57.9725 -2.1525 58.6325 -1.8125 59.3125 C0.8275 56.3425 3.4675 53.3725 6.1875 50.3125 C5.8575 49.6525 5.5275 48.9925 5.1875 48.3125 Z M-45.8125 60.3125 C-45.4825 60.9725 -45.1525 61.6325 -44.8125 62.3125 C-38.77125234 63.74758565 -33.58488438 63.44577249 -27.8125 61.3125 C-33.46442998 57.54454668 -39.63410716 57.6193544 -45.8125 60.3125 Z M-17.875 63.6875 C-18.75285156 63.77773438 -19.63070312 63.86796875 -20.53515625 63.9609375 C-22.83730737 64.19760438 -22.83730737 64.19760438 -24.8125 65.3125 C-24.8125 65.9725 -24.8125 66.6325 -24.8125 67.3125 C-18.82256953 67.6277595 -15.17689644 66.99469822 -9.8125 64.3125 C-12.96714799 63.26095067 -14.61987654 63.33274428 -17.875 63.6875 Z " fill="#EE3636" transform="translate(128.8125,223.6875)"/>
<path d="M0 0 C3.63 0 7.26 0 11 0 C12.47475532 3.68688831 13.47971058 6.70705775 14.2890625 10.51953125 C14.61777344 12.0519043 14.61777344 12.0519043 14.953125 13.61523438 C15.17484375 14.67033203 15.3965625 15.72542969 15.625 16.8125 C15.96917969 18.42415039 15.96917969 18.42415039 16.3203125 20.06835938 C16.88416646 22.71142483 17.44392131 25.35528974 18 28 C19.67199056 24.93700681 20.62581742 21.99394565 21.47265625 18.61328125 C21.86227539 17.0828418 21.86227539 17.0828418 22.25976562 15.52148438 C22.52466797 14.46251953 22.78957031 13.40355469 23.0625 12.3125 C23.59193626 10.2036424 24.12432614 8.09552334 24.66015625 5.98828125 C24.89355713 5.05540283 25.12695801 4.12252441 25.36743164 3.16137695 C26 1 26 1 27 0 C29.18639453 -0.07258946 31.37500389 -0.08373783 33.5625 -0.0625 C35.35880859 -0.04896484 35.35880859 -0.04896484 37.19140625 -0.03515625 C38.11824219 -0.02355469 39.04507813 -0.01195312 40 0 C40.20681396 0.80743652 40.41362793 1.61487305 40.62670898 2.44677734 C41.3945917 5.44024766 42.16450004 8.43318745 42.93579102 11.42578125 C43.43337438 13.35897132 43.92861119 15.29276488 44.42382812 17.2265625 C44.89272461 19.04414063 44.89272461 19.04414063 45.37109375 20.8984375 C45.8031311 22.57945557 45.8031311 22.57945557 46.24389648 24.29443359 C46.89091837 26.94015006 46.89091837 26.94015006 48 29 C48.26478149 27.73555054 48.26478149 27.73555054 48.53491211 26.44555664 C49.18979069 23.32707696 49.84801579 20.20932832 50.50854492 17.09204102 C50.79407634 15.74108903 51.07826047 14.38985156 51.36108398 13.03833008 C51.76714908 11.09903144 52.17841675 9.16082443 52.58984375 7.22265625 C52.83597412 6.05484619 53.08210449 4.88703613 53.33569336 3.68383789 C54 1 54 1 55 0 C56.85287502 -0.07226502 58.70833878 -0.0838122 60.5625 -0.0625 C61.57441406 -0.05347656 62.58632812 -0.04445312 63.62890625 -0.03515625 C64.41136719 -0.02355469 65.19382812 -0.01195312 66 0 C62.73640226 16.85476464 58.37535079 33.40773996 54 50 C50.04 50 46.08 50 42 50 C40.85406227 45.94502619 39.71494043 41.88821771 38.58203125 37.82958984 C38.1958688 36.4498366 37.80786522 35.07059725 37.41796875 33.69189453 C36.8570983 31.70738607 36.30292643 29.72110941 35.75 27.734375 C35.41484375 26.54038086 35.0796875 25.34638672 34.734375 24.11621094 C34 21 34 21 34 17 C33.34 17 32.68 17 32 17 C31.90847656 18.051875 31.81695312 19.10375 31.72265625 20.1875 C30.96017096 26.28738233 29.14139706 32.10890246 27.4375 38 C27.10814453 39.15628906 26.77878906 40.31257813 26.43945312 41.50390625 C25.63154539 44.33743774 24.81649087 47.16892983 24 50 C20.04 50 16.08 50 12 50 C9.09737995 40.24516518 6.58633555 30.43868708 4.28027344 20.52734375 C3.74066276 18.20989972 3.1948828 15.89396601 2.6484375 13.578125 C2.30172683 12.09904186 1.95535915 10.61987826 1.609375 9.140625 C1.44693298 8.45115784 1.28449097 7.76169067 1.11712646 7.05133057 C0 2.23123012 0 2.23123012 0 0 Z " fill="#fff" transform="translate(154,231)"/>
<path d="M0 0 C4.49625 -0.061875 8.9925 -0.12375 13.625 -0.1875 C15.03217285 -0.21481201 16.4393457 -0.24212402 17.88916016 -0.27026367 C19.01112793 -0.27775635 20.1330957 -0.28524902 21.2890625 -0.29296875 C23.00150146 -0.31653442 23.00150146 -0.31653442 24.74853516 -0.34057617 C29.81106296 0.18970062 33.00537183 1.84408078 36.3125 5.6875 C39.1899491 11.335826 39.5962619 15.76000857 37.875 21.75 C36.1098346 26.4679536 33.48222259 28.75888871 29 31 C27.6265365 31.15004973 26.2471474 31.24838006 24.8671875 31.31640625 C24.14128418 31.35451416 23.41538086 31.39262207 22.66748047 31.43188477 C21.74596191 31.47498779 20.82444336 31.51809082 19.875 31.5625 C16.94625 31.706875 14.0175 31.85125 11 32 C11 37.94 11 43.88 11 50 C7.37 50 3.74 50 0 50 C0 33.5 0 17 0 0 Z M11 9 C11 13.29 11 17.58 11 22 C13.84625 22.0928125 13.84625 22.0928125 16.75 22.1875 C17.81734375 22.22230469 18.8846875 22.25710937 19.984375 22.29296875 C23.3368133 21.9672785 24.66471658 21.39101811 27 19 C27.47350184 15.75313026 27.64576592 13.89177198 25.6875 11.1875 C22.46610451 8.92059207 19.61537526 8.88811201 15.8125 8.9375 C13.4303125 8.9684375 13.4303125 8.9684375 11 9 Z " fill="#EE3636" transform="translate(337,231)"/>
<path d="M0 0 C3.3 0 6.6 0 10 0 C10 16.5 10 33 10 50 C7.03 50 4.06 50 1 50 C0.67 49.01 0.34 48.02 0 47 C-0.825 47.66 -1.65 48.32 -2.5 49 C-6.19029214 51.43125129 -9.69210585 51.80825093 -14 51 C-18.87111576 49.33018547 -21.95773274 46.68368798 -24.28125 41.9765625 C-26.76978335 35.13309579 -26.4917026 27.81289854 -24 21 C-21.54930268 17.14190222 -19.38439295 14.46146432 -15 13 C-13.35720783 12.88207001 -11.70947306 12.82488326 -10.0625 12.8125 C-9.20785156 12.79832031 -8.35320312 12.78414062 -7.47265625 12.76953125 C-5 13 -5 13 -1 15 C-0.67 10.05 -0.34 5.1 0 0 Z M-12.375 22.75 C-15.33350036 26.84638511 -15.56446208 31.09205008 -15 36 C-13.84367254 38.36293002 -12.85016245 40.14983755 -11 42 C-7.58399407 42.41692853 -7.58399407 42.41692853 -4 42 C-0.88962836 38.99330742 -0.07296815 35.96682797 0.25 31.6875 C-0.0292827 27.56808011 -0.54396835 25.32752675 -3 22 C-7.01431374 20.68622459 -8.89805756 20.18804242 -12.375 22.75 Z " fill="#fff" transform="translate(321,231)"/>
<path d="M0 0 C3.63 0 7.26 0 11 0 C18 17.13793103 18 17.13793103 18 22 C18.66 22 19.32 22 20 22 C20.09796875 21.41734375 20.1959375 20.8346875 20.296875 20.234375 C21.57076466 13.24994549 23.6333109 6.68647116 26 0 C29.63 0 33.26 0 37 0 C35.76619273 5.99319859 34.23181251 11.628662 32.1015625 17.359375 C31.82533051 18.11164368 31.54909851 18.86391235 31.26449585 19.63897705 C30.68421673 21.21306518 30.10090222 22.78603745 29.51464844 24.35791016 C28.62346139 26.75413703 27.74884921 29.15599825 26.875 31.55859375 C26.30568214 33.09672269 25.73540277 34.63449615 25.1640625 36.171875 C24.77790268 37.23918854 24.77790268 37.23918854 24.38394165 38.32806396 C22.81116728 42.49276399 21.08580754 45.77368942 18 49 C12.59158423 51.2881759 8.61772268 50.98556538 3 50 C2.67 47.36 2.34 44.72 2 42 C6.455 41.505 6.455 41.505 11 41 C12.21932504 35.39562919 11.59122209 31.59163958 9.47265625 26.38671875 C9.20488876 25.69109329 8.93712128 24.99546783 8.66123962 24.27876282 C7.80993373 22.07550582 6.93718614 19.88156668 6.0625 17.6875 C5.19591099 15.47405821 4.33382332 13.25893997 3.47447205 11.04267883 C2.93990766 9.66840954 2.40031912 8.29608186 1.85523987 6.9259491 C0 2.21753885 0 2.21753885 0 0 Z " fill="#EE3636" transform="translate(411,245)"/>
<path d="M0 0 C1.31613281 -0.02578125 2.63226563 -0.0515625 3.98828125 -0.078125 C8.82763776 0.35113154 11.3071481 1.8696481 14.6875 5.25 C15.75906178 8.39232907 15.86446692 11.44844218 15.96875 14.75 C16.02482422 16.3278125 16.02482422 16.3278125 16.08203125 17.9375 C16.15234375 20.14583333 16.22265625 22.35416667 16.29296875 24.5625 C16.34904297 26.1403125 16.34904297 26.1403125 16.40625 27.75 C16.43654297 28.7090625 16.46683594 29.668125 16.49804688 30.65625 C16.63243462 33.51485668 16.63243462 33.51485668 17.6875 37.25 C14.0575 37.25 10.4275 37.25 6.6875 37.25 C6.3575 36.59 6.0275 35.93 5.6875 35.25 C4.8625 35.745 4.0375 36.24 3.1875 36.75 C-2.14969149 39.03736778 -6.1512324 38.98401541 -11.625 37.125 C-14.9747923 34.7879356 -16.04506153 33.12687061 -17.3125 29.25 C-17.3125 25.02524396 -16.90313236 22.98189471 -14.23828125 19.6796875 C-10.72593546 16.762893 -7.8767201 15.9049855 -3.5 14.9375 C-2.80712891 14.76927734 -2.11425781 14.60105469 -1.40039062 14.42773438 C0.29181714 14.01927043 1.98920866 13.63238258 3.6875 13.25 C4.0175 11.93 4.3475 10.61 4.6875 9.25 C1.3875 9.25 -1.9125 9.25 -5.3125 9.25 C-5.6425 10.24 -5.9725 11.23 -6.3125 12.25 C-9.6125 11.92 -12.9125 11.59 -16.3125 11.25 C-15.07142597 6.28570389 -13.55143588 4.11128172 -9.3125 1.25 C-6.32534862 -0.24357569 -3.27362064 0.02496565 0 0 Z M-0.375 21.75 C-1.75365234 22.16765625 -1.75365234 22.16765625 -3.16015625 22.59375 C-4.22556641 22.91859375 -4.22556641 22.91859375 -5.3125 23.25 C-5.99208603 25.64719432 -5.99208603 25.64719432 -6.3125 28.25 C-4.43311828 30.54827312 -4.43311828 30.54827312 -1.375 30.5625 C1.59323035 30.47392188 1.59323035 30.47392188 3.5 29.1875 C5.24479603 26.34072753 5.37792148 23.53153235 5.6875 20.25 C3.63105511 20.25 1.57116787 21.15875913 -0.375 21.75 Z " fill="#EE3636" transform="translate(394.3125,243.75)"/>
<path d="M0 0 C4.55039594 2.5734449 8.08831331 5.98142861 9.5234375 11.1171875 C10.24706398 17.77954169 10.7063506 24.53997003 6.5234375 30.1171875 C1.74183034 34.6908987 -2.12860469 37.1377045 -8.7265625 37.4921875 C-14.68023993 37.31357718 -19.73973006 35.65625349 -24.15234375 31.5625 C-28.10280518 26.37682387 -28.20822982 20.8098165 -27.95703125 14.46875 C-27.0303339 8.00447091 -24.39210662 4.71347426 -19.4765625 0.6171875 C-13.62270803 -2.23928853 -6.05521945 -2.15848517 0 0 Z M-14.4765625 9.1171875 C-17.57223903 13.49383363 -17.86438413 16.93123248 -17.04296875 22.05859375 C-16.19422436 25.14334061 -15.21660619 26.45874 -12.4765625 28.1171875 C-8.9765625 28.8671875 -8.9765625 28.8671875 -5.4765625 28.1171875 C-2.38869751 25.51688014 -1.24720295 23.06327882 -0.5390625 19.1796875 C-0.21613417 15.11232825 -1.13144915 12.51355856 -3.4765625 9.1171875 C-7.31128193 6.48081789 -10.64184307 6.48081789 -14.4765625 9.1171875 Z " fill="#fff" transform="translate(245.4765625,244.8828125)"/>
<path d="M0 0 C3.63 0 7.26 0 11 0 C11 16.5 11 33 11 50 C7.37 50 3.74 50 0 50 C0 33.5 0 17 0 0 Z " fill="#fff" transform="translate(281,231)"/>
<path d="M0 0 C0 3.3 0 6.6 0 10 C-1.65 10 -3.3 10 -5 10 C-8.20694499 13.20694499 -8.12896133 16.59280835 -8.31640625 20.984375 C-8.35830078 21.91894531 -8.40019531 22.85351562 -8.44335938 23.81640625 C-8.50233398 25.26853516 -8.50233398 25.26853516 -8.5625 26.75 C-8.60568359 27.73355469 -8.64886719 28.71710938 -8.69335938 29.73046875 C-8.79921949 32.15348927 -8.90009312 34.57672672 -9 37 C-12.3 37 -15.6 37 -19 37 C-19 25.12 -19 13.24 -19 1 C-16.03 1 -13.06 1 -10 1 C-9.67 1.66 -9.34 2.32 -9 3 C-8.62875 2.505 -8.2575 2.01 -7.875 1.5 C-5.25305607 -0.59755514 -3.26157528 -0.21743835 0 0 Z " fill="#fff" transform="translate(278,244)"/>
</svg>
